<?xml version="1.0" encoding="UTF-8"?>
<svg id="Layer_2" data-name="Layer 2" xmlns="http://www.w3.org/2000/svg" viewBox="0 0 1271.5 266.71">
  <defs>
    <style>
      .cls-1 {
        fill: #090909;
      }
    </style>
  </defs>
  <g id="text">
    <g>
      <path class="cls-1" d="M28.81,154.41v28.08h9.6v14.04h-19.21v-14.04h-9.6v-28.08H0v-70.19h9.6v-28.07h9.6v-14.04h9.6v-14.04h19.21v14.04h-9.6v14.04h-9.6v28.07h-9.6v70.19h9.6ZM38.41,196.52h28.81v14.04h-28.81v-14.04ZM96.03,14.04v14.04h9.6v-14.04h9.6v70.19h-9.6v-28.07h-9.6v-14.04h-9.6v-14.04h-38.41v-14.04h48.02ZM86.43,182.49v14.04h-19.21v-14.04h19.21ZM96.03,168.45v14.04h-9.6v-14.04h9.6ZM105.63,154.41v14.04h-9.6v-14.04h9.6Z"/>
      <path class="cls-1" d="M117.16,182.49v-56.15h9.6v-28.08h9.6v-14.04h19.21v14.04h-9.6v28.08h-9.6v56.15h9.6v14.04h28.81v14.04h-38.41v-14.04h-9.6v-14.04h-9.6ZM184.38,182.49v-28.08h9.6v-56.15h-9.6v-14.04h-28.81v-14.04h38.41v14.04h9.6v14.04h9.6v56.15h-9.6v28.08h-9.6v14.04h-19.21v-14.04h9.6Z"/>
      <path class="cls-1" d="M215.12,196.52v-56.15h9.6v-28.08h9.6v-14.04h19.21v14.04h-9.6v28.08h-9.6v42.11h9.6v14.04h19.21v14.04h-38.41v-14.04h-9.6ZM272.74,84.22v14.04h-19.21v-14.04h19.21ZM272.74,182.49v14.04h-9.6v-14.04h9.6ZM282.34,168.45v-14.04h9.6v-28.07h9.6v-42.11h-28.81v-14.04h38.41V28.07h-19.21v-14.04h38.41v56.15h-9.6v56.15h-9.6v42.11h-9.6v28.08h9.6v14.04h-28.81v-28.07h-9.6v-14.04h9.6ZM320.75,182.49v14.04h-9.6v-14.04h9.6Z"/>
      <path class="cls-1" d="M332.28,182.49v-56.15h9.6v-28.08h9.6v-14.04h19.21v14.04h-9.6v28.08h-9.6v28.07h19.21v14.04h-19.21v14.04h9.6v14.04h28.81v14.04h-38.41v-14.04h-9.6v-14.04h-9.6ZM399.5,126.34v-42.11h-28.81v-14.04h38.41v14.04h9.6v42.11h-9.6v14.04h-19.21v-14.04h9.6ZM389.9,140.37v14.04h-19.21v-14.04h19.21ZM409.11,182.49v14.04h-19.21v-14.04h19.21ZM418.71,168.45v14.04h-9.6v-14.04h9.6Z"/>
      <path class="cls-1" d="M470.57,154.41v-70.19h9.6v70.19h-9.6ZM489.78,56.15v28.07h-9.6v-28.07h9.6ZM489.78,154.41v28.08h-9.6v-28.08h9.6ZM499.38,42.11v14.04h-9.6v-14.04h9.6ZM489.78,182.49h19.21v14.04h-19.21v-14.04ZM518.59,28.07v14.04h-19.21v-14.04h19.21ZM499.38,154.41v-42.11h9.6v42.11h-9.6ZM518.59,84.22v28.07h-9.6v-28.07h9.6ZM537.79,154.41v14.04h-28.81v-14.04h28.81ZM508.98,196.52h48.02v14.04h-48.02v-14.04ZM566.6,14.04v14.04h-48.02v-14.04h48.02ZM537.79,70.19v14.04h-19.21v-14.04h19.21ZM566.6,56.15v14.04h-28.81v-14.04h28.81ZM547.39,140.37v14.04h-9.6v-14.04h9.6ZM566.6,126.34v42.11h-9.6v-42.11h9.6ZM566.6,28.07h19.21v14.04h-19.21v-14.04ZM566.6,126.34v-56.15h9.6v56.15h-9.6ZM566.6,182.49v-14.04h19.21v14.04h-19.21ZM585.81,70.19v-28.08h9.6v28.08h-9.6ZM585.81,168.45v-28.07h9.6v28.07h-9.6ZM595.41,140.37v-70.19h9.6v70.19h-9.6Z"/>
      <path class="cls-1" d="M666.48,224.6v14.04h9.6v14.04h-19.21v14.04h-19.21v-28.08h9.6v-14.04h19.21ZM666.48,196.52v-14.04h-9.6v-28.08h-9.6v-70.19h9.6v-28.07h9.6v-14.04h9.6v-14.04h19.21v14.04h-9.6v14.04h-9.6v28.07h-9.6v70.19h9.6v28.08h9.6v14.04h38.41v14.04h-48.02v-14.04h-9.6ZM676.08,210.56v14.04h-9.6v-14.04h9.6ZM714.5,224.6v14.04h-38.41v-14.04h38.41ZM733.7,14.04v14.04h-38.41v-14.04h38.41ZM762.51,224.6v28.08h-9.6v14.04h-28.81v-14.04h-9.6v-14.04h38.41v-14.04h9.6ZM724.1,196.52v-14.04h9.6v-14.04h9.6v-28.07h9.6v-70.19h-9.6v-28.08h-9.6v-14.04h19.21v14.04h9.6v28.08h9.6v70.19h-9.6v28.07h-9.6v14.04h-9.6v14.04h-19.21Z"/>
      <path class="cls-1" d="M793.25,210.56v-14.04h-9.6v-42.11h9.6v-42.11h9.6v-28.07h-9.6v-14.04h28.81v42.11h-9.6v42.11h-9.6v28.08h9.6v14.04h9.6v14.04h-28.81ZM783.64,98.26v-14.04h9.6v14.04h-9.6ZM822.06,196.52v-14.04h9.6v14.04h-9.6ZM831.66,182.49v-14.04h9.6v14.04h-9.6ZM841.26,168.45v-14.04h9.6v-14.04h9.6v-28.08h9.6v-42.11h19.21v42.11h-9.6v42.11h-9.6v42.11h9.6v14.04h-28.81v-42.11h-9.6ZM879.68,196.52v-14.04h9.6v14.04h-9.6Z"/>
      <path class="cls-1" d="M900.81,182.49v-56.15h9.6v-28.08h9.6v-14.04h19.21v14.04h-9.6v28.08h-9.6v28.07h19.21v14.04h-19.21v14.04h9.6v14.04h28.81v14.04h-38.41v-14.04h-9.6v-14.04h-9.6ZM968.03,126.34v-42.11h-28.81v-14.04h38.41v14.04h9.6v42.11h-9.6v14.04h-19.21v-14.04h9.6ZM958.43,140.37v14.04h-19.21v-14.04h19.21ZM968.03,42.11v14.04h-9.6v-14.04h9.6ZM977.63,182.49v14.04h-19.21v-14.04h19.21ZM977.63,28.07v-14.04h9.6V0h9.6v28.07h-9.6v14.04h-19.21v-14.04h9.6ZM987.23,168.45v14.04h-9.6v-14.04h9.6Z"/>
      <path class="cls-1" d="M1008.37,182.49v-56.15h9.6v-56.15h9.6V28.07h-19.21v-14.04h38.41v56.15h-9.6v28.07h9.6v14.04h-9.6v14.04h-9.6v70.19h-9.6v-14.04h-9.6ZM1065.98,196.52v14.04h-38.41v-14.04h38.41ZM1056.38,84.22v14.04h-9.6v-14.04h9.6ZM1075.59,182.49v-28.08h9.6v-56.15h-9.6v-14.04h-19.21v-14.04h28.81v14.04h9.6v14.04h9.6v56.15h-9.6v28.08h-9.6v14.04h-19.21v-14.04h9.6Z"/>
      <path class="cls-1" d="M1106.32,182.49v-56.15h9.6v-28.08h9.6v-14.04h19.21v14.04h-9.6v28.08h-9.6v28.07h19.21v14.04h-19.21v14.04h9.6v14.04h28.81v14.04h-38.41v-14.04h-9.6v-14.04h-9.6ZM1173.54,126.34v-42.11h-28.81v-14.04h38.41v14.04h9.6v42.11h-9.6v14.04h-19.21v-14.04h9.6ZM1163.94,140.37v14.04h-19.21v-14.04h19.21ZM1183.15,182.49v14.04h-19.21v-14.04h19.21ZM1192.75,168.45v14.04h-9.6v-14.04h9.6Z"/>
      <path class="cls-1" d="M1194.67,182.49v-56.15h9.6v-28.08h9.6v-14.04h19.21v14.04h-9.6v28.08h-9.6v56.15h9.6v14.04h19.21v14.04h-28.81v-14.04h-9.6v-14.04h-9.6ZM1261.9,70.19v14.04h9.6v28.07h-19.21v-28.07h-19.21v-14.04h28.81ZM1261.9,182.49v14.04h-19.21v-14.04h19.21ZM1271.5,168.45v14.04h-9.6v-14.04h9.6Z"/>
    </g>
  </g>
</svg>